<?xml version="1.0" encoding="UTF-8" standalone="no"?><!DOCTYPE svg PUBLIC "-//W3C//DTD SVG 1.1//EN" "http://www.w3.org/Graphics/SVG/1.1/DTD/svg11.dtd"><svg width="100%" height="100%" viewBox="0 0 810 1440" version="1.1" xmlns="http://www.w3.org/2000/svg" xmlns:xlink="http://www.w3.org/1999/xlink" xml:space="preserve" xmlns:serif="http://www.serif.com/" style="fill-rule:evenodd;clip-rule:evenodd;stroke-linejoin:round;stroke-miterlimit:2;"><g id="Background"><path d="M35.859,0l774.139,0c1.631,1.631 0,2.091 0,28.828l0,1411.17c-2.42,1.54 -2.717,-0 -35.858,-0l-774.141,0c-1.631,-1.631 -0,-2.091 0,-28.827l0,-1411.172c2.42,-1.54 2.717,0 35.859,0Z" style="fill:#fdfdfd;"/><path d="M250.872,104.469c0.649,0.336 0.901,1.215 1.55,1.551c0.518,0.268 1.393,-0.315 1.742,0.152c0.152,0.203 -0.146,0.182 -1.39,2.845c-0.65,1.392 -0.403,1.635 -1.253,1.686c-7.721,0.466 -10.913,6.839 -12.943,6.931c-1.844,0.084 -5.094,0.231 -18.362,13.973c-2.248,2.328 -7.273,9.368 -16.84,19.709c-2.757,2.98 -6.005,8.518 -6.463,9.3c-1.386,2.226 -15.258,24.505 -13.735,29.76c0.19,0.657 1.282,1.302 0.879,1.855c-0.103,0.142 -3.264,-0.048 -4.421,4.025c-7.701,27.1 -12.003,32.499 -7.028,39.327c-4.816,12.465 -1.415,13.412 -3.579,16.753c-2.614,4.036 1.077,15.392 -0.649,19.773c-1.14,2.894 -1.426,2.671 -2.478,5.591c-0.079,0.22 0.166,0.124 2.343,1.751l0.876,-0.859c0.804,0.649 0.935,1.916 1.739,2.565c2.289,1.848 3.808,-3.594 15.287,-1.134c5.382,1.153 5.249,-2.257 29.673,-2.596c0.384,0.263 0.974,-0.584 1.358,-0.321c0.748,0.513 0.754,1.75 1.494,2.275c0.382,0.272 0.351,0.105 5.662,-1.503c0.732,-0.11 0.894,-1.227 4.04,-0.609c3.767,0.739 13.173,-2.675 14.27,-3.074c2.766,-1.004 2.766,1.296 5.545,0.491c6.96,-2.016 7.32,0.342 14.25,-1.883c1.979,-0.636 2.003,0.833 3.908,0.18c2.63,-0.901 2.533,-1.616 5.757,-0.961c3.29,0.669 7.613,-2.338 14.017,-0.495c3.059,0.881 7.487,-2.197 8.485,-2.292c0.454,-0.043 0.297,1.188 5.662,0.698c2.186,-0.2 2.127,-0.663 4.152,0.118c0.423,0.163 0.387,-0.185 5.666,0.138c0.572,0.035 8.295,-3.667 14.052,-2.51c4.214,0.847 4.047,-1.377 11.245,-1.46c1.427,-0.016 12.734,0.698 32.367,-0.37c2.046,-0.111 36.468,0.727 53.421,-0.524c2.917,-0.215 2.914,1.162 36.562,-0.235c1.349,-0.056 1.297,0.948 16.865,0.582c35.125,-0.826 59.445,0.543 85.816,-0.846c6.883,-0.362 6.758,1.193 14.03,0.517c2.353,-0.219 2.323,0.435 29.535,0.041c6.441,-0.093 6.422,1.328 12.676,-0.028c3.727,-0.808 8.405,0.784 8.422,0.793c1.772,0.871 1.732,-0.17 3.161,-0.31c1.608,2.104 1.617,1.975 3.343,3.884c1.697,2.386 4.011,4.855 4.385,5.255c1.576,7.155 4.718,7.221 1.613,13.93c-0.104,0.225 -0.064,0.22 -0.857,2.974c-0.44,38.119 0.036,38.2 2.599,44.842c3.064,7.939 -2.67,7.811 -2.844,21.168c-0.389,29.884 -0.204,30.208 1.572,32.063c2.74,2.864 10.54,6.78 2.65,15.881c-5.882,6.785 -6.004,42.356 -0.263,45.083c1.006,0.478 9.828,4.667 6.636,12.244c-3.71,8.808 -8.049,5.715 -9.782,11.289c-0.372,1.195 -2.556,29.866 1.741,32.626c1.023,0.657 8.018,1.933 8.412,9.726c0.599,11.833 -9.063,7.903 -10.615,18.346c-0.282,1.897 -0.595,23.729 1.447,29.281c1.742,4.735 12.596,8.317 7.201,19.548c-2.121,4.416 -8.846,2.893 -8.948,11.581c-0.308,26.426 0.263,27.559 5.295,29.848c5.629,2.561 10.929,15.239 -1.339,20.594c-4.929,2.151 -4.167,10.259 -4.018,29.689c0.998,7.095 2.399,6.511 6.61,8.87c6.378,3.572 4.421,15.817 0.026,18.935c-7.065,5.012 -6.326,6.117 -6.305,18.614c0.022,12.861 -2.056,13.174 2.461,25.272c2.129,5.7 -2.665,8.65 -4.244,9.918c0.127,5.445 0.017,5.354 0.373,9.825c-4.158,2.322 -4.26,2.008 -7.617,5.3c0.654,0.406 0.769,1.414 1.424,1.82c0.388,0.241 1.272,-0.535 1.367,-0.088c0.377,1.76 -1.577,1.741 -0.875,22.487c0.228,6.732 -2.197,40.915 -3.265,43.579c-1.355,3.381 -7.07,34.451 -8.398,36.565c-3.267,5.199 -1.408,5.889 -4.313,11.211c-4.424,8.105 -1.977,9.108 -6.87,16.922c-5.057,8.076 -4.747,8.167 -9.889,16.23c-0.542,0.161 -1.084,0.321 -1.626,0.482l-0.893,1.758c-0.915,0.009 -1.83,0.017 -2.745,0.026c-0.204,0.817 -0.409,1.633 -0.613,2.45c-3.155,9.054 -10.741,15.186 -17.599,25.759c-1.081,1.666 -3.105,3.492 -3.022,3.919c0.144,0.745 1.327,0.993 1.471,1.738c-4.738,3.914 -5.713,5.512 -16.767,12.86c-0.553,0.364 -14.747,11.709 -22.642,4.809c-5.325,-4.654 5.892,-7.185 8.389,-15.114c3.464,-10.999 15.596,-81.813 -0.601,-90.836c-9.164,-5.105 -26.435,-0.018 -26.945,17.604c-0.944,32.622 -0.009,95.838 -8.445,107.832c-9.521,13.537 -30.243,6.775 -22.647,-4.769c6.73,-10.228 7.384,-10.666 8.101,-55.212c0.85,-52.801 0.534,-60.847 -12.933,-62.038c-15.937,-1.41 -16.248,17.796 -16.281,19.849c-1.62,100.206 -0.252,100.412 -3.328,112.521c-3.768,14.83 -27.84,12.029 -24.329,-0.11c2.251,-7.784 4.563,-15.774 4.877,-101.166c0.018,-4.848 2.903,-28.463 -14.389,-28.102c-13.992,0.292 -14.327,15.072 -14.368,16.843c-1.048,46.142 2.066,117.657 -1.468,122.082c-5.452,6.826 -23.304,7.066 -23.732,-8.162c-0.752,-26.782 1.888,-115.819 -1.763,-123.482c-4.618,-9.692 -25.818,-11.724 -26.729,6.724c-0.204,4.137 -0.704,99.592 3.663,111.028c0.282,0.74 4.625,7.051 -0.753,12.259c-2.888,2.797 -21.251,8.879 -23.579,-16.363c-2.955,-32.052 0.022,-108.165 -3.32,-115.035c-5.629,-11.574 -26.629,-14.798 -27.489,8.145c-0.057,1.52 -0.689,81.52 3.315,91.186c0.879,2.122 13.653,19.009 -0.498,21.31c-19.902,3.237 -22.523,-21.241 -22.804,-23.867c-7.563,-70.625 5.696,-100.278 -15.421,-109.16c-8.886,-3.737 -19.561,-0.223 -21.302,10.601c-2.379,14.792 -0.257,79.031 10.648,86.83c0.058,0.042 7.647,3.343 5.47,7.604c-1.084,2.121 -11.675,4.07 -22.325,-2.174c-26.154,-15.333 -70.871,-61.715 -80.666,-137.154c-7.566,-58.272 -0.198,-74.01 -5.192,-81.768c-2.95,-4.584 1.311,-10.521 1.307,-13.871c-0.037,-30.792 -0.438,-31.246 -2.204,-33.242c-0.038,-0.043 -15.724,-6.996 -7.225,-18.3c3.067,-4.08 9.321,-2.079 9.311,-10.338c-0.031,-27.027 0.744,-28.957 -7.012,-32.505c-7.595,-3.475 -5.652,-15.757 -0.151,-18.224c8.276,-3.711 7.218,-5.654 7.316,-23.8c0.068,-12.584 -0.756,-13.321 -6.974,-16.139c-5.947,-2.695 -7.618,-13.342 -0.169,-17.413c6.694,-3.658 7.394,-4.871 6.867,-32.546c-0.248,-13.022 -14.808,-8.576 -11.335,-21.126c2.536,-9.166 10.425,-4.483 11.383,-14.031c0.07,-0.703 0.622,-22.771 -0.24,-26.658c-1.563,-7.05 -12.526,-4.716 -11.532,-15.591c0.9,-9.854 11.247,-5.009 11.487,-16.827c0.603,-29.69 0.72,-30.117 -4.157,-37.802c-5.089,-8.018 3.914,-9.909 4.142,-17.045c1.106,-34.576 -0.093,-37.646 -1.277,-40.679c-0.855,-2.19 -2.764,-2.262 1.173,-17.044c1.965,-43.619 -2.017,-45.097 -1.972,-46.306c0.046,-1.267 2.162,-0.832 3.196,-15.52c8.162,-115.996 80.116,-156.063 93.265,-163.385Z" style="fill:#7b2f5a;"/><path d="M65.422,567.504c2.478,-5.849 0.36,-20.392 18.268,-22.418c10.5,-1.188 19.841,5.699 20.822,15.333c0.417,4.095 -1.104,5.975 3.008,6.115c22.328,0.759 26.963,3.187 26.986,27.608c0.071,73.844 0.74,74.853 -4.46,80.122c-10.151,10.286 -24.931,2.39 -25.109,8.487c-0.144,4.94 -0.007,100.896 0.005,109.669c0.012,8.519 0.162,8.413 0.529,16.91c6.095,116.949 82.124,183.373 100.695,199.484c124.89,108.349 369.747,99.926 465.577,-99.542c30.558,-63.606 25.241,-117.168 25.389,-175.913c0.018,-7.008 0.081,-20.139 -0.02,-37.974c-0.064,-11.165 1.332,-12.772 -3.184,-14.879c0.408,-0.213 0.971,0.306 1.379,0.092c1.87,-0.976 1.349,-1.367 1.144,-3.529c-0.004,-0.045 0.16,-84.181 -0.053,-99.788c-0.115,-8.412 0.81,-8.386 0.594,-9.081c-0.213,-0.684 -1.504,-0.608 -1.717,-1.291c2.927,-5.315 -0.448,-16.019 15.702,-20.047c8.702,-2.17 23.533,2.677 25.192,14.934c0.446,3.291 0.797,3.106 1.631,6.359c-0.1,0.94 -1.067,1.646 -1.166,2.586c-0.266,2.505 0.012,93.952 0.037,102.122c0.016,5.297 0.002,5.204 0.069,5.651c0.156,1.049 0.861,0.615 1.027,1.733c-4.109,12.026 4.669,128.09 -6.9,179.736c-5.299,23.66 -30.536,151.239 -175.861,226.817c-48.933,25.448 -102.027,32.689 -111.246,33.947c-4.522,0.617 -3.874,1.731 -5.186,3.477c-0.262,-0.37 0.833,-3.231 -3.264,-2.355c-0.28,0.06 -0.281,0.036 -14.064,0.15c-6.376,0.053 -7.361,-1.402 -9.954,2.657c-19.411,-0.128 -30.154,0.101 -43.428,-2.295c-4.917,-1.059 -4.971,-0.118 -9.971,-1.055c-0.876,-0.164 -0.505,-0.729 -1.441,-0.904c-0.899,-0.168 -0.762,0.492 -1.724,0.313c-40.906,-7.89 -132.355,-21.863 -216.302,-121.518c-67.503,-80.134 -70.745,-173.713 -71.307,-189.934c-0.392,-11.323 -0.402,-15.11 -0.436,-68.895c-0.037,-58.046 0.3,-58.223 -1.359,-61.489c0.234,-0.417 1.194,0.557 1.428,0.14c0.406,-0.723 -0.048,-0.733 -0.113,-10.368c-0.053,-7.874 -0.445,-65.882 0.1,-98.424c0.039,-2.36 -0.916,-1.915 -1.314,-2.746Z" style="fill:#a86678;"/><path d="M250.872,104.469c16.77,-6.13 15.006,2.219 14.459,3.271c-2.818,5.422 -11.947,0.91 -16.045,30.733c-1.867,13.587 -4.6,58.347 0.578,65.972c9.277,13.66 30.608,7.384 31.497,-13.912c1.588,-38.017 -0.595,-38.003 1.666,-75.949c0.242,-4.064 -0.703,-29.412 17.145,-33.942c5.802,-1.473 21.8,0.203 10.453,13.317c-3.195,3.692 -6.614,6.447 -6.628,83.931c-0.001,7.138 -2.639,34.393 17.375,31.215c15.479,-2.458 11.852,-19.519 12.153,-55.124c0.652,-77.013 2.357,-78.913 10.405,-82.77c1.684,-0.807 20.867,-7.93 16.191,10.897c-2.093,8.427 -5.472,22.032 -4.617,108.44c0.262,26.515 28.945,21.962 28.977,4.219c0.108,-59.788 0.072,-59.673 -0.017,-119.533c-0.019,-12.493 25.299,-16.297 25.391,1.409c0.623,119.976 -3.57,122.46 4.697,128.895c5.007,3.897 23.89,9.164 23.987,-14.987c0.379,-94.931 -2.093,-102.596 -4.823,-111.059c-3.835,-11.888 23.765,-19.87 25.835,9.781c4.054,58.073 -0.808,105.082 4.443,113.488c6.12,9.797 26.003,10.216 26.448,-9.391c1.684,-74.216 -0.778,-85.425 -2.37,-92.668c-1.316,-5.989 -15.199,-17.327 -2.271,-20.098c12.451,-2.669 23.16,7.882 24.826,22.817c4.924,44.137 0.656,90.492 5.192,98.133c7.969,13.427 29.871,15.898 31.895,-8.194c0.046,-0.547 2.682,-68.464 -10.087,-79.873c-1.351,-1.207 -7.891,-4.94 -6.065,-8.283c4.612,-8.447 32.445,14.063 34.829,15.991c-1.367,1.553 -4.006,1.193 -1.721,6.056c5.396,11.485 7.866,10.083 25.917,47.658c8.02,16.694 1.795,18.695 5.394,26.848c0.155,0.351 1.207,1.462 0.904,4.26c-0.328,3.019 1.584,2.542 1.674,5.613c0.093,3.184 1.933,5.47 1.632,7.051c-0.112,0.587 -1.285,1.346 -0.4,4.212c0.134,0.436 0.874,2.832 -0.907,5.625c-0.353,0.553 -1.284,0.757 -1.377,1.406c-0.08,0.561 1.302,0.437 0.663,7.053c-0.24,2.487 1.673,1.718 2.193,4.178c2.121,10.032 1.118,11.482 -0.485,12.675c-2.26,1.682 -1.601,2.156 -3.019,3.465c-0.306,0.282 -0.941,-0.216 -1.247,0.066c-170.409,-6.196 -361.295,-1.174 -385.414,1.782c-23.453,2.875 -24.697,2.328 -41.076,19.45l-0.876,0.859c-2.177,-1.627 -2.423,-1.531 -2.343,-1.751c1.053,-2.92 1.339,-2.697 2.478,-5.591c1.726,-4.381 -1.965,-15.737 0.649,-19.773c2.164,-3.341 -1.237,-4.288 3.579,-16.753c3.954,-5.784 3.084,-6.083 4.67,-12.804c1.055,-4.469 -0.556,-4.922 1.825,-8.402c4.294,-6.274 -0.446,-8.192 15.405,-42.241c4.271,-9.175 5.178,-8.952 4.768,-9.715c-0.469,-0.873 -1.894,-0.932 -2.364,-1.806c0.458,-0.782 3.706,-6.32 6.463,-9.3c9.567,-10.342 14.592,-17.381 16.84,-19.709c13.268,-13.742 16.518,-13.89 18.362,-13.973c2.03,-0.092 5.222,-6.465 12.943,-6.931c0.85,-0.051 0.603,-0.294 1.253,-1.686c1.244,-2.663 1.541,-2.642 1.39,-2.845c-0.349,-0.467 -1.224,0.116 -1.742,-0.152c-0.649,-0.336 -0.901,-1.215 -1.55,-1.551Z" style="fill:#b65c88;"/><path d="M183.494,383.274c-16.429,-7.385 -11.593,-21.526 0.16,-26.417c15.331,-6.38 343.322,-6.277 421.699,-1.22c19.794,1.277 18.491,15.838 16.349,20.263c-5.489,11.337 -9.603,7.573 -135.837,6.845c-249.265,-1.438 -288.45,3.906 -302.37,0.528Z" style="fill:#fcfcfc;"/><path d="M329.758,632.667c-77.721,-1.72 -137.012,-7.806 -144.947,-10.033c-15.034,-4.22 -19.575,-30.532 11.362,-27.092c22.325,2.482 212.997,17.474 406.46,-0.746c25.185,-2.372 24.685,21.46 10.999,26.907c-9.704,3.862 -97.203,9.325 -98.226,9.361c-101.045,3.503 -100.935,2.689 -185.648,1.603Z" style="fill:#fcfdfd;"/><path d="M263.682,506.467c-5.739,-0.18 -55.552,-1.747 -71.714,-2.888c-24.35,-1.719 -19.758,-19.623 -13.818,-24.393c3.719,-2.986 4.176,-3.283 67.253,-2.243c260.38,4.292 303.81,-1.867 362.807,-1.1c12.182,0.158 15.843,10.17 15.066,15.585c-1.922,13.389 -19.021,12.114 -20.719,12.173c-59.555,2.073 -59.507,2.609 -64.686,2.704c-138.032,2.524 -137.96,1.846 -274.19,0.162Z" style="fill:#fcfdfd;"/><path d="M386.014,696.277c-109.721,-0.937 -197.966,-10.83 -206.387,-16.903c-11.78,-8.495 -6.206,-26.864 10.952,-24.976c14.936,1.644 74.593,12.496 209.498,12.212c204.166,-0.43 212.773,-24.288 221.75,-4.756c7.987,17.377 -16.896,21.047 -19.169,21.382c-88.744,13.088 -199.281,13.047 -216.644,13.041Z" style="fill:#fcfcfc;"/><path d="M303.061,540.072c32.107,0.469 154.617,4.493 296.699,-5.092c4.195,-0.283 21.569,-3.316 23.138,12.691c1.503,15.345 -16.341,15.363 -41.372,17.333c-114.78,9.035 -385.535,5.993 -401.98,-5.011c-9.315,-6.233 -10.549,-25.573 12.4,-24.815c7.092,0.234 7.02,0.953 88.596,4.254c13.449,0.544 13.384,0.193 22.519,0.64Z" style="fill:#fcfcfc;"/><path d="M190.558,416.717c33.74,-0.189 409.01,-2.287 421.758,0.711c15.015,3.532 15.689,25.39 -5.499,26.542c-13.306,0.723 -411.937,2.541 -423.199,-0.668c-12.469,-3.554 -18.368,-25.214 6.94,-26.585Z" style="fill:#fbfcfc;"/><path d="M333.991,290.918c21.943,-0.116 212.227,-1.12 274.248,4.804c20.686,1.976 18.709,28.194 -1.454,27.776c-45.372,-0.94 -45.183,-2.835 -133.596,-4.356c-160.475,-2.761 -276.114,4.631 -282.655,4.598c-20.747,-0.104 -21.231,-19.887 -9.592,-25.804c7.843,-3.987 106.869,-6.594 153.05,-7.018Z" style="fill:#fcfcfc;"/><path d="M179.578,738.498c-10.082,-9.033 -9.25,-27.236 15.227,-23.655c24.287,3.553 59.437,13.065 199.649,14.081c106.257,0.77 183.935,-10.911 199.774,-13.292c1.606,-0.241 28.631,-8.235 28.795,12.064c0.092,11.397 -8.936,15.945 -86.477,23.236c-150.602,14.161 -329.943,0.751 -356.968,-12.433Z" style="fill:#fcfcfc;"/><path d="M425.467,1211.233c8.982,0.465 9.021,1.651 14.086,0.094c10.982,1.316 10.911,1.343 13.952,1.622c-0.38,0.918 -0.76,1.836 -1.139,2.755c0.001,14.873 0.858,14.766 0.539,29.545c-0.083,3.823 0.247,3.764 0.566,47.799c0.128,17.586 -1.128,17.502 -0.39,35.154c0.338,8.079 -0.509,9.854 0.305,21.102c0.454,6.275 -3.294,19.624 1.606,26.964c-20.958,3.89 -33.852,5.258 -76.034,4.242c0.798,-33.455 0.085,-160.838 0.262,-161.953c0.63,-3.958 30.577,-1.414 46.248,-7.323Z" style="fill:#662581;"/><path d="M354.725,1120.737c0.962,0.18 0.824,-0.48 1.724,-0.313c0.936,0.175 0.565,0.739 1.441,0.904c5,0.937 5.054,-0.004 9.971,1.055c-1.143,5.09 -0.848,5.049 -1.278,65.196c-0.126,17.586 2.036,22.062 -4.45,22.546c-0.345,0.026 -1.127,0.084 -3.757,2.139c7.042,0.879 7.296,2.302 13.606,-0.835c1.003,-0.16 2.006,-0.321 3.01,-0.481c11.534,-0.405 12.112,0.45 44.786,-0.913c2.684,1.537 2.707,1.285 5.69,1.198c-15.67,5.91 -45.617,3.366 -46.248,7.323c-0.177,1.115 0.536,128.498 -0.262,161.953c-11.175,-0.554 -12.531,-0.225 -33.607,-2.326c-5.791,-0.846 -5.727,-0.709 -11.393,-1.812c0.896,-0.505 3.13,1.154 2.876,-3.164c-0.759,-12.916 0.007,-65.983 0.09,-71.72c1.201,-83.211 -1.483,-83.554 1.254,-90.234c12.819,-1.286 16.085,1.12 16.205,-5.389c0.194,-10.509 -0.218,-76.814 0.342,-85.126Z" style="fill:#f3a648;"/><path d="M367.86,1122.384c13.274,2.395 24.018,2.167 43.428,2.295c7.865,-0.207 7.732,-0.192 15.5,-0.57c5.973,-0.881 6.059,-2.121 11.783,0.118c0.569,79.602 -0.678,82.152 0.981,87.101c-5.065,1.557 -5.104,0.371 -14.086,-0.094c-2.727,-1.299 -2.713,-0.904 -5.69,-1.198c-32.674,1.363 -33.252,0.508 -44.786,0.913c-1.213,-0.097 -2.426,-0.194 -3.64,-0.291l0.63,0.772c-6.31,3.137 -6.563,1.715 -13.606,0.835c2.629,-2.055 3.412,-2.113 3.757,-2.139c6.486,-0.483 4.324,-4.96 4.45,-22.546c0.43,-60.148 0.135,-60.106 1.278,-65.196Z" style="fill:#773e64;"/><path d="M595.611,257.359c15.784,0.777 25.821,-0.019 32.628,8.481c-1.429,0.14 -1.389,1.182 -3.161,0.31c-0.017,-0.008 -4.695,-1.601 -8.422,-0.793c-6.254,1.356 -6.235,-0.065 -12.676,0.028c-27.213,0.393 -27.183,-0.26 -29.535,-0.041c-7.272,0.676 -7.148,-0.879 -14.03,-0.517c-26.371,1.388 -50.69,0.02 -85.816,0.846c-15.568,0.366 -15.516,-0.638 -16.865,-0.582c-33.648,1.397 -33.645,0.019 -36.562,0.235c-16.953,1.251 -51.376,0.412 -53.421,0.524c-19.633,1.067 -30.94,0.353 -32.367,0.37c-7.197,0.083 -7.031,2.307 -11.245,1.46c-5.757,-1.157 -13.48,2.545 -14.052,2.51c-5.279,-0.323 -5.243,0.025 -5.666,-0.138c-2.025,-0.781 -1.966,-0.317 -4.152,-0.118c-5.365,0.49 -5.207,-0.741 -5.662,-0.698c-0.997,0.095 -5.426,3.173 -8.485,2.292c-6.404,-1.844 -10.727,1.163 -14.017,0.495c-3.224,-0.655 -3.127,0.06 -5.757,0.961c-1.906,0.653 -1.929,-0.816 -3.908,-0.18c-6.93,2.225 -7.291,-0.133 -14.25,1.883c-2.779,0.805 -2.779,-1.495 -5.545,-0.491c-1.098,0.399 -10.504,3.813 -14.27,3.074c-3.146,-0.618 -3.309,0.499 -4.04,0.609c-0.714,-0.32 -0.73,-1.53 -1.443,-1.85c-0.247,-0.111 -6.508,1.274 -7.071,1.399c-24.424,0.339 -24.291,3.75 -29.673,2.596c-11.479,-2.46 -12.999,2.982 -15.287,1.134c-0.804,-0.649 -0.935,-1.916 -1.739,-2.565c16.379,-17.122 17.623,-16.575 41.076,-19.45c24.12,-2.957 215.006,-7.979 385.414,-1.782Z" style="fill:#7f3877;"/><path d="M695.275,566.91c0.213,0.684 1.504,0.608 1.717,1.291c0.217,0.695 -0.708,0.67 -0.594,9.081c0.213,15.607 0.049,99.743 0.053,99.788c0.204,2.162 0.726,2.553 -1.144,3.529c-0.408,0.213 -0.971,-0.306 -1.379,-0.092l-1.403,-0.013c-0.322,-0.006 -15.779,2.11 -23.611,-7.797c-2.885,-3.649 -2.64,-4.088 -2.771,-72.935c-0.024,-12.623 -3.366,-28.503 15.242,-32.003c6.893,-1.297 6.889,-0.361 13.89,-0.849Z" style="fill:#6d25bb;"/><path d="M566.39,121.193c0.989,0.9 1.978,1.8 2.967,2.7c14.618,13.731 64.684,57.265 66.61,151.086c-0.374,-0.4 -2.688,-2.869 -4.385,-5.255c-1.726,-1.909 -1.735,-1.78 -3.343,-3.884c-6.807,-8.499 -16.843,-7.704 -32.628,-8.481c0.306,-0.282 0.941,0.216 1.247,-0.066c1.418,-1.309 0.758,-1.783 3.019,-3.465c1.603,-1.193 2.606,-2.643 0.485,-12.675c-0.52,-2.46 -2.433,-1.691 -2.193,-4.178c0.639,-6.617 -0.743,-6.492 -0.663,-7.053c0.093,-0.649 1.025,-0.853 1.377,-1.406c1.781,-2.793 1.041,-5.189 0.907,-5.625c-0.884,-2.866 0.289,-3.625 0.4,-4.212c0.301,-1.581 -1.539,-3.867 -1.632,-7.051c-0.09,-3.071 -2.001,-2.594 -1.674,-5.613c0.304,-2.798 -0.749,-3.909 -0.904,-4.26c-3.599,-8.153 2.625,-10.155 -5.394,-26.848c-18.051,-37.575 -20.521,-36.174 -25.917,-47.658c-2.285,-4.863 0.354,-4.503 1.721,-6.056Z" style="fill:#4083bc;"/><path d="M338.177,1211.252c-2.738,6.68 -0.054,7.024 -1.254,90.234c-0.083,5.737 -0.849,58.804 -0.09,71.72c0.254,4.318 -1.98,2.659 -2.876,3.164c-2.25,-0.627 -3.854,-0.43 -8.615,-2.75c-5.784,-4.117 -4.434,-5.429 -4.487,-35.573c-0.016,-9.341 -0.2,-113.402 0.095,-116.769c0.718,-8.206 14.503,-9.431 17.227,-10.028Z" style="fill:#f29b36;"/><path d="M737.8,568.156c24.278,10.043 17.856,19.595 18.826,65.357c0.782,36.915 -1.912,39.376 -18.86,46.735c-0.166,-1.118 -0.871,-0.684 -1.027,-1.733c-0.066,-0.447 -0.052,-0.354 -0.069,-5.651c-0.025,-8.17 -0.303,-99.617 -0.037,-102.122c0.1,-0.94 1.067,-1.646 1.166,-2.586Z" style="fill:#3d7db8;"/><path d="M463.395,1215.615c8.92,4.955 8.055,6.549 8.086,18.369c0.028,10.681 0.342,131.476 -0.157,133.508c-1.056,4.301 -6.171,5.593 -7.757,6.303c-2.213,0.854 -2.101,0.828 -4.281,1.453c1.408,-3.189 1.282,-4.459 1.242,-4.858c-0.147,-1.483 1.03,-8.346 0.794,-9.832c-1.064,-6.692 0.24,-34.218 -0.043,-36.559c-1.524,-12.6 -0.744,-55.43 -0.303,-60.489c0.07,-0.806 -0.644,-5.752 -0.551,-7.03c1.037,-14.2 -0.284,-32.07 -0.204,-32.362c1.756,-6.42 0.482,-6.477 0.664,-7.01c0.919,-2.677 1.961,-1.168 2.51,-1.495Z" style="fill:#449cae;"/><path d="M453.505,1212.949c5.122,1.084 5.023,0.974 9.89,2.666c-0.549,0.327 -1.592,-1.182 -2.51,1.495c-0.183,0.533 1.092,0.59 -0.664,7.01c-0.08,0.291 1.241,18.161 0.204,32.362c-0.093,1.277 0.621,6.223 0.551,7.03c-0.44,5.059 -1.221,47.889 0.303,60.489c0.283,2.341 -1.021,29.866 0.043,36.559c0.236,1.487 -0.941,8.349 -0.794,9.832c0.04,0.399 0.166,1.669 -1.242,4.858c-1.432,0.339 -2.863,0.679 -4.295,1.018c-4.9,-7.34 -1.151,-20.689 -1.606,-26.964c-0.815,-11.248 0.033,-13.023 -0.305,-21.102c-0.738,-17.652 0.517,-17.568 0.39,-35.154c-0.319,-44.035 -0.648,-43.975 -0.566,-47.799c0.319,-14.779 -0.537,-14.672 -0.539,-29.545c0.38,-0.918 0.76,-1.836 1.139,-2.755Z" style="fill:#46a6e0;"/><path d="M635.388,767.126c0.249,61.916 1.225,130.549 -63.462,190.159c-0.144,-0.745 -1.327,-0.993 -1.471,-1.738c-0.083,-0.427 1.941,-2.253 3.022,-3.919c6.858,-10.574 14.444,-16.705 17.599,-25.759c0.555,-0.217 1.227,0.365 1.782,0.147c0,0 1.45,-2.414 1.576,-2.624l0.893,-1.758l1.626,-0.482c5.142,-8.063 4.831,-8.154 9.889,-16.23c4.893,-7.814 2.446,-8.816 6.87,-16.922c2.905,-5.322 1.046,-6.013 4.313,-11.211c1.328,-2.114 7.043,-33.184 8.398,-36.565c1.067,-2.664 3.493,-36.847 3.265,-43.579c-0.702,-20.746 1.252,-20.727 0.875,-22.487c-0.096,-0.447 -0.979,0.329 -1.367,0.088c-0.654,-0.406 -0.769,-1.414 -1.424,-1.82c3.356,-3.292 3.458,-2.978 7.617,-5.3Z" style="fill:#2d4c97;"/><path d="M686.777,893.612c0.025,0.585 0.123,2.862 0.801,7.276c-1.241,5.208 -25.652,71.372 -81.766,118.453c-49.069,41.171 -93.513,60.266 -135.295,67.622c0.364,-0.803 -0.49,-1.84 -0.126,-2.643c0.195,-0.43 0.944,-0.081 1.406,-0.179c9.225,-1.955 9.034,-2.618 9.844,-2.726c8.009,-1.071 7.865,-1.596 8.561,-1.607c2.264,-0.036 1.835,-0.774 2.821,-1.43c2.768,-1.843 3.535,0.502 9.918,-2.693c0.566,-0.283 8.945,-2.131 10.017,-3.42c1.148,-1.382 22.062,-9.463 30.257,-14.558c22.267,-13.843 22.627,-13.363 24.152,-15.053c2.742,-3.04 15.284,-9.452 33.306,-24.377c0.797,-0.544 1.976,0.705 4.126,-2.815c0.249,-0.407 -0.232,-1.024 0.016,-1.43c4.131,-4.891 5.957,-6.679 11.351,-9.734c5.414,-2.004 5.898,-1.804 8.401,-6.999c0.206,-0.428 -0.186,-0.997 0.02,-1.425c14.39,-16.892 13.897,-17.277 15.207,-18.691c8.81,-9.504 8.012,-10.049 15.657,-20.577c6.958,-9.581 7.025,-10.139 7.153,-11.194c0.086,-0.709 1.292,-1.572 1.79,-3.967c0.659,-0.818 0.877,-0.548 1.218,-1.511c0.327,-0.924 0.677,-0.568 1.163,-1.487c0.519,-0.979 5.398,-10.19 6.219,-12.38c0.497,-1.325 11.689,-23.012 13.781,-32.455Z" style="fill:#962581;"/><path d="M56.935,571.618c1.573,1.324 2.769,0.348 2.831,2.382c0.006,0.187 -1.29,-0.835 -1.424,1.857c-0.376,7.528 0.675,7.413 -0.018,94.219c-0.022,2.763 -0.526,2.564 -1.925,4.915c-10.111,-7.818 -8.838,-9.876 -8.766,-59.755c0.042,-28.663 -1.806,-35.07 9.302,-43.619Z" style="fill:#f69124;"/><path d="M65.422,567.504c0.398,0.831 1.353,0.386 1.314,2.746c-0.545,32.542 -0.153,90.55 -0.1,98.424c0.065,9.635 0.519,9.645 0.113,10.368c-0.234,0.417 -1.194,-0.557 -1.428,-0.14c-4.418,-1.466 -4.59,-0.947 -8.923,-3.91c1.399,-2.351 1.902,-2.152 1.925,-4.915c0.693,-86.806 -0.358,-86.691 0.018,-94.219c0.135,-2.692 1.43,-1.67 1.424,-1.857c-0.062,-2.034 -1.258,-1.059 -2.831,-2.382c5.819,-3.874 6.702,-3.342 8.487,-4.114Z" style="fill:#fb6911;"/><path d="M196.913,160.616c0.469,0.873 1.894,0.932 2.364,1.806c0.41,0.763 -0.497,0.54 -4.768,9.715c-15.851,34.05 -11.112,35.968 -15.405,42.241c-2.382,3.48 -0.77,3.933 -1.825,8.402c-1.587,6.721 -0.716,7.02 -4.67,12.804c-4.974,-6.828 -0.673,-12.227 7.028,-39.327c1.158,-4.074 4.318,-3.884 4.421,-4.025c0.403,-0.553 -0.689,-1.198 -0.879,-1.855c-1.522,-5.256 12.349,-27.534 13.735,-29.76Z" style="fill:#f99720;"/><path d="M447.333,1293.045c-0.279,-0.38 0.05,-1.015 -0.229,-1.395c-1.615,-2.201 -2.726,-2.039 -1.795,-4.229c0.296,-0.695 1.469,-0.728 1.763,-1.424c0.667,-1.58 -1.363,-6.026 -0.938,-9.818c0.187,-1.671 -0.406,-1.42 -1.287,-2.821c-0.25,-0.397 -0.195,-0.961 -0.047,-1.406c0.18,-0.542 0.852,-0.849 0.981,-1.405c0.765,-3.323 -2.494,-8.049 -1.861,-9.845c2.863,-8.123 -1.198,-8.751 1.664,-16.84c0.517,-1.462 0.275,-1.392 -0.279,-2.848c-1.019,-2.677 0.345,-2.714 -0.042,-5.625c-0.335,-2.523 1.031,-16.625 0.946,-16.901c-1.059,-3.437 2.001,-1.619 3.427,-1.38c-1.079,18.274 0.688,18.27 -1.097,36.561c-0.153,1.568 0.588,1.522 0.588,19.689c0,11.332 1.334,11.666 -1.271,15.468c-0.876,1.279 -0.441,1.369 -0.524,4.218Z" style="fill:#4f61ce;"/><path d="M327.791,1270.536c0.743,1.501 1.016,1.288 1.398,2.823c0.13,0.521 0.759,0.875 0.775,1.412c0.047,1.579 -1.915,1.16 -1.284,4.234c2.003,9.752 0.101,11.399 1.189,25.285l-0.817,1.365c-0.747,-0.708 -2.025,-0.651 -2.771,-1.359c-0.645,-0.611 -0.042,-22.777 0.069,-23.906c0.764,-7.761 0.406,-7.776 0.542,-8.439l0.899,-1.415Z" style="fill:#f3942f;"/><path d="M328.897,1264.918c-0.335,-0.935 -2.294,-0.467 -2.63,-1.402c-0.368,-1.026 -0.625,-16.883 0.014,-18.281c0.428,-0.936 2.32,-0.47 2.748,-1.406c0.16,0.463 -0.462,0.975 -0.302,1.439c0.205,0.593 1.104,0.782 1.275,1.385c0.613,2.161 -1.79,9.463 -1.105,18.266Z" style="fill:#f1912c;"/><path d="M492.868,782.188c0.331,-0.125 3.629,-1.369 4.231,-1.3c14.341,1.624 14.415,-0.837 15.479,-0.203c0.585,0.349 0.767,1.184 1.353,1.533c-0.607,0.397 0.262,1.915 -2.759,1.805c-3.583,-0.131 -3.456,0.561 -7.002,0.319c-6.88,-0.468 -9.816,0.158 -9.873,0.117c-0.726,-0.522 -0.703,-1.748 -1.429,-2.27Z" style="fill:#4b199b;"/><path d="M411.289,1124.678c2.593,-4.059 3.578,-2.604 9.954,-2.657c13.783,-0.114 13.785,-0.09 14.064,-0.15c4.098,-0.877 3.003,1.984 3.264,2.355c-5.724,-2.239 -5.81,-0.999 -11.783,-0.118c-7.768,0.378 -7.635,0.363 -15.5,0.57Z" style="fill:#af6abf;"/><path d="M326.855,1219.933c0.829,1.073 2.125,1.724 2.954,2.798c0.276,0.357 -0.321,0.36 -0.242,5.629c0.118,7.798 -0.128,7.687 -0.538,15.469c-0.59,-0.665 -1.675,-0.741 -2.265,-1.406c-0.555,-0.625 0.331,-3.882 0.42,-4.208c0.982,-3.609 -0.519,-14.385 -0.329,-18.281Z" style="fill:#f1932a;"/><path d="M688.92,885.428c0.844,2.441 0.834,2.427 0.912,2.637c0.541,1.456 0.682,1.325 1.219,2.769c-0.164,0.549 -0.494,1.038 -0.658,1.587c-1.281,4.283 -1.392,4.144 -2.815,8.468c-0.678,-4.414 -0.776,-6.691 -0.801,-7.276c0.516,-1.372 -0.085,-1.39 0.397,-2.671c0.169,-0.449 0.553,0.173 0.716,-0.285c0.91,-2.557 0.308,-2.572 1.03,-5.227Z" style="fill:#7f44ba;"/><path d="M695.216,868.322c0.083,0.325 1.979,0.325 -1.427,14.049c-1.459,-3.36 -1.571,-3.292 -1.317,-7.001c1.214,-3.932 1.212,-3.905 1.311,-4.246c0.461,-1.597 0.711,-1.39 1.434,-2.802Z" style="fill:#7447c0;"/><path d="M185.634,896.773c0.605,0.267 1.365,-0.501 1.97,-0.233c0.265,0.117 2.751,2.514 2.984,2.739c1.759,1.696 0.817,1.991 -0.019,4.229c-0.583,-0.326 -4.093,-2.287 -4.935,-6.734Z" style="fill:#f68f21;"/><path d="M329.869,1304.29c-0.55,2.863 -0.234,2.772 -0.346,5.639c-0.069,1.764 -1.23,1.169 -1.554,2.824c-0.097,0.497 0.742,0.879 0.645,1.376c-0.627,-0.453 -1.925,0.408 -2.046,-2.782c-0.013,-0.338 -0.149,-3.94 0.096,-4.221c0.615,-0.704 1.773,-0.767 2.388,-1.471l0.817,-1.365Z" style="fill:#f1932d;"/><path d="M624.588,995.874c-0.206,0.428 0.186,0.997 -0.02,1.425c-2.502,5.195 -2.987,4.995 -8.401,6.999c0.786,-0.914 1.537,-3.019 8.421,-8.423Z" style="fill:#981d78;"/><path d="M692.471,875.37c-0.254,3.709 -0.142,3.642 1.317,7.001c-1.043,2.27 -0.982,2.186 -1.916,4.403c-0.92,-2.999 -0.9,-5.349 -0.896,-5.82c0.389,-2.921 0.331,-2.832 1.495,-5.584Z" style="fill:#7743bf;"/><path d="M269.297,775.543c2.844,-1.036 2.877,-1.863 7.076,-0.536c-0.675,0.521 -0.784,1.58 -1.459,2.102c-1.126,0.87 -1.245,0.189 -5.617,-1.565Z" style="fill:#84293a;"/><path d="M215.82,277.427c0.563,-0.125 6.823,-1.51 7.071,-1.399c0.714,0.32 0.73,1.53 1.443,1.85c-5.311,1.609 -5.28,1.775 -5.662,1.503c-0.74,-0.526 -0.745,-1.762 -1.494,-2.275c-0.384,-0.263 -0.974,0.584 -1.358,0.321Z" style="fill:#a54024;"/><path d="M690.976,880.955c-0.004,0.471 -0.024,2.821 0.896,5.82c-0.274,1.353 -0.548,2.706 -0.822,4.059c-0.536,-1.444 -0.677,-1.312 -1.219,-2.769c-0.078,-0.209 -0.068,-0.195 -0.912,-2.637c1.118,-2.259 1.052,-2.188 2.056,-4.474Z" style="fill:#7a43be;"/><path d="M164.004,760.081c2.177,8.012 2.373,7.867 2.446,8.577c-0.467,-0.463 -5.08,-5.039 -3.977,-7.193c0.313,-0.612 1.217,-0.772 1.53,-1.384Z" style="fill:#ef8628;"/><path d="M328.729,1336.66c-2.182,-3.361 -2.073,-3.785 0.246,-7.051c-0.561,3.51 -0.422,3.426 -0.246,7.051Z" style="fill:#f3952e;"/><path d="M591.69,923.418c0.915,-0.009 1.83,-0.017 2.745,-0.026c-0.126,0.21 -1.576,2.624 -1.576,2.624c-0.555,0.217 -1.227,-0.365 -1.782,-0.147c0.204,-0.817 0.409,-1.633 0.613,-2.45Z" style="fill:#4071b9;"/><path d="M604.816,1014.031c-0.249,0.407 0.232,1.024 -0.016,1.43c-2.15,3.52 -3.329,2.271 -4.126,2.815c1.851,-2.397 1.814,-2.351 4.142,-4.246Z" style="fill:#901776;"/><path d="M419.778,1210.035c2.977,0.294 2.962,-0.101 5.69,1.198c-2.983,0.087 -3.005,0.339 -5.69,-1.198Z" style="fill:#6b398a;"/><path d="M695.355,851.48c-0.253,1.891 -0.505,3.782 -0.758,5.673c-1.132,-4.097 -1.35,-4.076 -1.221,-4.419c0.273,-0.732 1.706,-0.522 1.979,-1.254Z" style="fill:#6934c3;"/><path d="M595.642,914.832c0.004,0.552 1.132,0.652 1.136,1.203c0.002,0.242 -0.457,-0.41 -2.58,1.582c0.137,-0.654 0.24,-0.507 0.372,-1.139c0.209,-0.997 0.488,-0.749 1.072,-1.647Z" style="fill:#4884c3;"/><path d="M328.658,1267.739l-0.434,1.399l-0.433,1.399l-0.899,1.415c0.654,-4.111 1.471,-3.652 1.767,-4.213Z" style="fill:#f1902c;"/><path d="M628.584,560.207c0.057,0.171 0.712,2.134 0.712,2.134c-4.026,9.007 -0.767,-1.963 -0.712,-2.134Z" style="fill:#312d9d;"/><path d="M201.61,771.989c-0.138,-0.434 -1.108,-0.125 -1.246,-0.559c-0.252,-0.793 0.49,-1.425 0.589,-1.509c1.22,-1.039 0.194,0.61 0.657,2.068Z" style="fill:#aa4526;"/><path d="M328.897,1264.918c0.335,2.242 0.191,2.196 -0.673,4.22l0.434,-1.399l0.238,-2.821Z" style="fill:#f39830;"/><path d="M168.069,769.901c1.592,0.485 1.459,0.494 2.734,1.497c-1.333,-0.315 -1.197,-0.471 -2.734,-1.497Z" style="fill:#e88325;"/><path d="M371.352,1210.657c1.213,0.097 2.426,0.194 3.64,0.291c-1.003,0.16 -2.006,0.321 -3.01,0.481l-0.63,-0.772Z" style="fill:#ce7039;"/></g></svg>