<svg width="1600" height="900" viewBox="0 0 1600 900" fill="none" xmlns="http://www.w3.org/2000/svg">
  <defs>
    <linearGradient id="bg" x1="120" y1="100" x2="1480" y2="840" gradientUnits="userSpaceOnUse">
      <stop stop-color="#0B1F3A"/>
      <stop offset="0.5" stop-color="#1B3B6F"/>
      <stop offset="1" stop-color="#F76B5E"/>
    </linearGradient>
    <linearGradient id="wave" x1="0" y1="0" x2="1" y2="1">
      <stop stop-color="#A7C7FF" stop-opacity="0.55"/>
      <stop offset="1" stop-color="#FFD6A5" stop-opacity="0.25"/>
    </linearGradient>
  </defs>
  <rect width="1600" height="900" fill="url(#bg)"/>
  <circle cx="1340" cy="180" r="210" fill="#9DCAFF" fill-opacity="0.2"/>
  <circle cx="220" cy="740" r="300" fill="#FFE9C4" fill-opacity="0.12"/>
  <path d="M0 660C180 612 320 714 510 678C720 638 780 540 1020 560C1250 580 1380 690 1600 660V900H0V660Z" fill="url(#wave)"/>
  <g opacity="0.95">
    <rect x="210" y="252" width="1180" height="266" rx="36" fill="#FFFFFF" fill-opacity="0.08" stroke="#FFFFFF" stroke-opacity="0.22"/>
    <text x="280" y="340" fill="#EAF2FF" font-family="Arial, sans-serif" font-size="42" font-weight="700">How to Transcribe Sinhala Audio to Text</text>
    <text x="280" y="398" fill="#D7E5FF" font-family="Arial, sans-serif" font-size="31" font-weight="500">Practical Sri Lankan workflow with editing tips</text>
    <text x="280" y="464" fill="#FFFFFF" fill-opacity="0.9" font-family="Arial, sans-serif" font-size="26" font-weight="700">HelaVoice Blog</text>
  </g>
  <g transform="translate(1180 312)">
    <rect x="0" y="0" width="148" height="148" rx="28" fill="#FFFFFF" fill-opacity="0.18"/>
    <rect x="35" y="30" width="16" height="88" rx="8" fill="#FFF"/>
    <rect x="62" y="18" width="16" height="100" rx="8" fill="#FFF" fill-opacity="0.85"/>
    <rect x="89" y="42" width="16" height="76" rx="8" fill="#FFF" fill-opacity="0.7"/>
  </g>
</svg>
